<svg id="Capa_1" enable-background="new 0 0 512 512" height="512" viewBox="0 0 512 512" width="512" xmlns="http://www.w3.org/2000/svg"><g><path d="m293.013 140.711 84.494-70.427-36.385-70.284h-170.244l-36.384 70.284 84.494 70.427c-85.712 17.232-150.47 93.095-150.47 183.806-.001 103.379 84.104 187.483 187.482 187.483s187.483-84.104 187.483-187.483c0-90.711-64.758-166.574-150.47-183.806zm-52.013-20.707-35.997-30.004h35.997zm30-30.004h35.997l-35.997 30.004zm67.401-30h-67.401v-30h51.871zm-97.401-30v30h-67.401l15.529-30zm15 452c-86.836 0-157.483-70.646-157.483-157.483s70.647-157.483 157.483-157.483 157.483 70.646 157.483 157.483-70.647 157.483-157.483 157.483z"/><path d="m256 190.947c-73.651 0-133.57 59.919-133.57 133.57s59.919 133.57 133.57 133.57 133.57-59.919 133.57-133.57-59.919-133.57-133.57-133.57zm0 237.14c-57.109 0-103.57-46.461-103.57-103.57 0-57.108 46.461-103.57 103.57-103.57s103.57 46.461 103.57 103.57-46.461 103.57-103.57 103.57z"/></g></svg>