<svg height="511pt" viewBox="0 -45 511.99958 511" width="511pt" xmlns="http://www.w3.org/2000/svg"><path d="m504.949219 300.820312c-7.964844-21.566406-17.410157-43.71875-26.542969-65.140624-3.6875-8.648438-7.484375-17.5625-11.101562-26.238282v-117.914062c0-36.472656-29.566407-66.140625-65.914063-66.140625-5.714844 0-11.417969.753906-16.949219 2.246093-26.265625 7.082032-36.03125 6.089844-45.417968-4.609374-12.554688-14.316407-30.582032-22.523438-49.457032-22.523438-11.496094 0-22.621094 2.925781-32.171875 8.460938-3.21875 1.867187-6.136719 3.652343-8.960937 5.382812-16.261719 9.945312-22.996094 14.066406-37.683594 5.550781-10.007812-5.800781-21.421875-8.867187-33.011719-8.867187-15.40625 0-30.421875 5.5-42.273437 15.484375-8.445313 7.113281-17.691406 9.917969-28.277344 8.5625-5.472656-.699219-10.488281 3.175781-11.1875 8.65625-.699219 5.476562 3.175781 10.484375 8.652344 11.1875 16.210937 2.070312 30.914062-2.339844 43.699218-13.109375 8.25-6.949219 18.6875-10.777344 29.390626-10.777344 8.066406 0 16.015624 2.132812 22.976562 6.167969 24.996094 14.492187 40.359375 5.089843 58.152344-5.792969 2.726562-1.667969 5.542968-3.394531 8.554687-5.136719 6.507813-3.773437 14.164063-5.765625 22.140625-5.765625 13.121094 0 25.664063 5.726563 34.421875 15.710938 18.632813 21.234375 41.691407 17.191406 65.660157 10.730468 3.832031-1.035156 7.785156-1.558593 11.746093-1.558593 25.316407 0 45.910157 20.699219 45.910157 46.140625v119.820312.097656 31.804688c-31.527344-7.96875-64.777344-8.671875-96.621094-2.164062v-79.632813c0-5.523437-4.480469-10-10.003906-10-5.523438 0-10 4.476563-10 10v79.632813c-28.632813-5.851563-58.394532-5.851563-87.023438 0v-79.632813c0-5.523437-4.476562-10-10-10s-10.003906 4.476563-10.003906 10v79.632813c-28.628906-5.851563-58.390625-5.851563-87.023438 0v-79.632813c0-5.523437-4.476562-10-10-10-5.523437 0-10 4.476563-10 10v79.632813c-31.847656-6.507813-65.097656-5.804688-96.625 2.164062v-151.722656c0-12.042969 4.648438-23.460938 13.089844-32.15625 3.84375-3.964844 3.75-10.296875-.210938-14.144532-3.964843-3.847656-10.296874-3.75-14.144531.210938-12.082031 12.449219-18.738281 28.816406-18.738281 46.085938v152.5625c0 7.152343 3.863281 13.40625 9.601562 16.828124v31.171876c0 35.140624 28.488282 63.730468 63.511719 63.730468 22.449219 0 42.214844-11.746094 53.511719-29.4375 11.300781 17.691406 31.066406 29.4375 53.515625 29.4375 22.445313 0 42.210937-11.746094 53.511719-29.4375 4.664062 7.304688 10.777344 13.59375 17.921875 18.460938-7.484375 13.617187-11.402344 28.835937-11.402344 44.59375 0 17.011718 13.804687 30.855468 30.773437 30.855468h99.960938c5.191406 0 9.886719.074219 14.027344.140626 2.925781.046874 5.664062.082031 8.25.082031 23.449218 0 34.261718-2.722657 55.214844-22.796875 19.191406 4.289062 36.304687-12.839844 43.261718-19.824219 26.953125-26.367187 22.316406-52.625 13.289063-77.070313zm-67.242188-39.285156v30.824219c0 20.230469-13.75 37.292969-32.347656 42.261719-.054687.015625-.109375.03125-.164063.046875-3.515624.925781-7.203124 1.417969-11.003906 1.417969-23.992187 0-43.511718-19.613282-43.511718-43.726563v-30.824219c28.550781-6.460937 58.476562-6.460937 87.027343 0zm-321.082031 30.550782c0 24.113281-19.519531 43.730468-43.511719 43.730468-23.992187 0-43.511719-19.617187-43.511719-43.730468v-30.550782c28.550782-6.460937 58.472657-6.460937 87.023438 0v30.542969zm63.515625 43.730468c-23.992187 0-43.507813-19.613281-43.511719-43.722656 0-.003906 0-.003906 0-.007812v-30.550782c28.550782-6.460937 58.472656-6.460937 87.023438 0v30.550782c0 24.113281-19.519532 43.730468-43.511719 43.730468zm63.515625-74.28125c28.546875-6.460937 58.472656-6.460937 87.023438 0v30.550782c0 24.113281-19.519532 43.730468-43.511719 43.730468-6.0625 0-11.835938-1.257812-17.082031-3.515625-.226563-.113281-.453126-.21875-.683594-.3125-15.160156-6.84375-25.746094-22.148437-25.746094-39.902343zm16.519531 127.898438c0-2.535156.140625-5.050782.394531-7.542969h60.910157c5.070312 0 9.199219 4.128906 9.199219 9.199219v9.199218h-59.734376c-5.9375 0-10.769531-4.871093-10.769531-10.855468zm125.078125 11c-4.21875-.066406-8.996094-.144532-14.347656-.144532h-20.226562v-9.199218c0-16.101563-13.097657-29.199219-29.199219-29.199219h-55.921875c1.195312-2.917969 2.597656-5.761719 4.175781-8.519531 5.542969 1.589844 11.386719 2.445312 17.433594 2.445312 22.390625 0 42.109375-11.6875 53.425781-29.296875 11.28125 17.761719 31.089844 29.570313 53.597656 29.570313 3.96875 0 7.847656-.386719 11.613282-1.089844 11.703124 8.488281 20.78125 16.957031 27.769531 29.242188-17.398438 16.667968-23.097657 16.589843-48.320313 16.191406zm92.382813-36.804688c-.035157.035156-.066407.066406-.101563.097656-6.964844 6.996094-16.738281 15.660157-24.511718 14.433594-6.804688-13.242187-15.316407-22.960937-25.507813-31.578125 18.101563-11.238281 30.191406-31.335937 30.191406-54.222656v-31.445313c2.796875-1.667968 5.136719-4.003906 6.808594-6.796874 7.585937 17.851562 15.167969 36.023437 21.671875 53.632812 8.363281 22.652344 9.480469 38.265625-8.550781 55.878906zm0 0"/><path d="m417.300781 121.082031c5.523438 0 10-4.476562 10-10v-.007812c0-5.523438-4.476562-9.996094-10-9.996094-5.523437 0-10 4.480469-10 10.003906 0 5.523438 4.476563 10 10 10zm0 0"/><path d="m407.300781 211.082031c0 5.523438 4.476563 10.003907 10 10.003907 5.523438 0 10-4.480469 10-10.003907v-60c0-5.523437-4.476562-10.003906-10-10.003906-5.523437 0-10 4.480469-10 10.003906zm0 0"/><path d="m65.921875 45.386719c5.523437 0 10-4.476563 10-10 0-5.523438-4.476563-10-10-10h-.007813c-5.523437 0-9.996093 4.476562-9.996093 10 0 5.523437 4.480469 10 10.003906 10zm0 0"/></svg>